<svg version="1.1" id="Layer_1" xmlns="http://www.w3.org/2000/svg" xmlns:xlink="http://www.w3.org/1999/xlink" x="0px" y="0px"
	 width="100%" viewBox="0 0 812 960" enable-background="new 0 0 812 960" xml:space="preserve">
<path fill="none" opacity="1.000000" stroke="#000000" stroke-linecap="round" stroke-linejoin="round" stroke-width="2.000000"
	d="
M812.500000,954.500000 
	C812.500000,956.500000 812.500000,958.500000 812.500000,960.500000 
	C544.166687,960.500000 275.833344,960.502014 7.500008,960.453979 
	C5.840908,960.453674 3.866000,961.336670 2.500000,959.500000 
"/>
<path fill="none" opacity="1.000000" stroke="#000000" stroke-linecap="round" stroke-linejoin="round" stroke-width="7.000000"
	d="
M210.000000,576.500000 
	C208.404083,580.737183 208.963959,584.711060 210.402359,589.032471 
	C220.089783,618.136780 229.497787,647.334045 239.013168,676.495728 
	C239.241837,677.196533 239.507874,678.010742 240.024277,678.472839 
	C245.855591,683.691223 246.238693,691.432007 248.811935,698.072876 
	C250.720459,702.998291 253.098724,705.471497 258.478394,706.167053 
	C264.132263,706.898071 270.139435,707.325073 274.969177,711.040039 
	C276.434204,712.166870 279.057434,711.988831 279.378052,711.796570 
	C285.439575,708.162720 291.588440,711.253479 297.486023,711.689148 
	C313.485443,712.870850 329.454285,714.368896 345.497223,715.064331 
	C360.994965,715.736145 376.469879,716.773987 392.000946,716.572571 
	C396.411499,716.515381 400.521149,715.772339 404.500000,714.000000 
"/>
<path fill="none" opacity="1.000000" stroke="#000000" stroke-linecap="round" stroke-linejoin="round" stroke-width="3.000000"
	d="
M176.500000,476.000000 
	C178.166672,476.333344 180.246765,476.151917 181.422607,477.096375 
	C184.973389,479.948395 189.008484,479.298309 192.998627,479.524292 
	C205.023407,480.205292 217.045868,480.946259 229.001770,482.486237 
	C229.821503,482.591827 230.771072,482.753601 231.483643,482.460266 
	C237.678696,479.909882 244.048477,481.947754 249.959976,482.783234 
	C268.255402,485.368958 286.686432,484.856934 305.015045,486.310272 
	C313.291473,486.966553 321.666534,487.204712 330.001160,487.462067 
	C340.496307,487.786133 351.015503,487.527802 361.496979,488.059784 
	C388.324402,489.421448 415.164093,488.940216 442.000031,488.969055 
	C454.666504,488.982697 467.381714,489.305725 479.988770,488.351532 
	C499.316956,486.888580 518.724487,486.852844 538.019226,484.669800 
	C543.937561,484.000183 549.985046,482.577911 555.974426,483.643707 
	C557.758850,483.961243 558.367615,482.920868 559.491577,482.478638 
	C560.970032,481.897003 562.479187,480.611359 563.973572,482.027863 
	C567.885315,485.735718 571.932983,483.564301 575.434631,481.865295 
	C580.132080,479.586212 585.096130,479.355896 590.002930,478.517242 
	C595.323242,477.607880 600.948914,477.607269 605.924377,475.792694 
	C611.423340,473.787201 616.964355,471.523468 622.553894,470.233459 
	C631.825867,468.093567 634.016052,462.208801 634.137817,454.002045 
	C634.160583,452.466949 634.420593,450.652039 635.365234,448.926239 
	C637.297546,445.396118 638.048523,441.574310 636.142517,437.434387 
	C635.389221,435.798218 635.774597,433.608093 636.879333,431.438568 
	C644.543457,416.387756 651.201477,400.890656 655.477539,384.494141 
	C660.347778,365.819153 663.632324,346.893494 662.419739,327.505035 
	C661.892578,319.076355 660.018188,310.901978 654.522095,303.982422 
	C647.750122,295.456573 641.197632,286.853729 632.649353,279.818481 
	C628.454102,276.365814 625.768982,271.045837 622.519104,266.486389 
	C619.595154,262.384308 616.722961,258.235443 614.059875,253.962692 
	C613.126587,252.465378 611.979675,251.512131 610.525635,252.067184 
	C605.880798,253.840271 600.738098,253.733582 596.290588,256.066162 
	C594.740601,265.409271 595.196960,274.555603 598.934570,283.527252 
	C601.991882,290.866119 600.094116,298.341766 597.924500,305.477051 
	C593.214783,320.965759 592.368286,336.601532 595.000000,352.500000 
"/>
<path fill="none" opacity="1.000000" stroke="#000000" stroke-linecap="round" stroke-linejoin="round" stroke-width="17.000000"
	d="
M392.500000,669.750000 
	C394.159943,670.539612 396.097412,671.615173 395.910492,673.491089 
	C395.004059,682.589355 400.265503,690.097595 402.107178,698.476440 
	C403.094604,702.968750 405.006104,707.254150 404.494049,711.999329 
	C404.382690,713.031189 404.570709,713.895691 405.498657,714.502014 
	C413.019531,719.416931 415.919128,728.014648 421.347107,734.625549 
	C435.905945,752.356873 454.518250,762.886902 476.508850,767.961670 
	C489.814331,771.032227 503.388855,772.270630 516.995056,771.420654 
	C544.584839,769.696960 570.987000,763.932739 593.492920,746.490906 
	C612.433289,731.812256 623.123169,712.096924 627.936462,688.986755 
	C629.507202,681.445068 631.361694,673.848816 630.250000,666.000000 
"/>
<path fill="none" opacity="1.000000" stroke="#000000" stroke-linecap="round" stroke-linejoin="round" stroke-width="6.000000"
	d="
M323.500000,488.000000 
	C321.836121,494.766541 323.404846,501.319336 324.307373,508.025909 
	C325.044708,513.504700 325.761139,519.007751 326.461151,524.504944 
	C327.604889,533.486633 328.200500,542.545837 329.568817,551.489502 
	C331.730591,565.619690 333.034149,579.872681 335.230255,593.964111 
	C337.540314,608.786560 339.051239,623.703308 341.391022,638.517212 
	C343.721436,653.272034 345.204865,668.162170 346.948303,683.006042 
	C347.150818,684.730347 348.644653,686.137756 348.000000,688.000000 
"/>
<path fill="none" opacity="1.000000" stroke="#000000" stroke-linecap="round" stroke-linejoin="round" stroke-width="6.000000"
	d="
M380.500000,489.500000 
	C378.158997,499.666656 380.503021,509.864716 380.799133,519.991272 
	C381.100647,530.300415 381.571411,540.676514 382.367676,551.010193 
	C383.546173,566.304077 383.833344,581.666687 384.500000,597.000000 
"/>
<path fill="none" opacity="1.000000" stroke="#000000" stroke-linecap="round" stroke-linejoin="round" stroke-width="5.000000"
	d="
M436.500000,489.500000 
	C436.833313,548.833313 437.166656,608.166687 437.500000,667.500000 
"/>
<path fill="none" opacity="1.000000" stroke="#000000" stroke-linecap="round" stroke-linejoin="round" stroke-width="6.000000"
	d="
M270.500000,485.500000 
	C269.844788,494.794586 272.817200,503.551483 274.498383,512.500305 
	C277.504059,528.499207 280.333038,544.533997 283.581085,560.483459 
	C284.905029,566.984680 286.282043,573.477661 287.637329,579.971313 
	C288.447754,583.854309 288.326385,587.652771 288.500000,591.500000 
"/>
<path fill="none" opacity="1.000000" stroke="#000000" stroke-linecap="round" stroke-linejoin="round" stroke-width="5.000000"
	d="
M495.000000,488.000000 
	C495.045868,499.095093 493.397247,510.027832 492.078888,521.009460 
	C490.723450,532.300110 490.026855,543.669128 488.989716,554.999084 
	C488.378998,561.670898 488.103302,568.415039 486.874878,574.976562 
	C485.690308,581.303589 486.037079,587.368347 487.500000,593.500000 
"/>
<path fill="none" opacity="1.000000" stroke="#000000" stroke-linecap="round" stroke-linejoin="round" stroke-width="5.000000"
	d="
M219.500000,482.000000 
	C216.682663,489.087280 220.782791,495.188141 222.600937,501.470795 
	C229.856171,526.541626 237.349274,551.547363 245.177048,576.444336 
	C246.241516,579.829895 244.903000,582.180542 244.500000,585.000000 
"/>
<path fill="none" opacity="1.000000" stroke="#000000" stroke-linecap="round" stroke-linejoin="round" stroke-width="7.000000"
	d="
M557.500000,484.500000 
	C559.298645,488.500000 558.471008,492.542389 557.473022,496.493195 
	C550.607727,523.672852 543.683105,550.837524 536.731140,577.995178 
	C535.746765,581.840698 535.731628,585.648132 536.500000,589.500000 
"/>
<path fill="none" opacity="1.000000" stroke="#000000" stroke-linecap="round" stroke-linejoin="round" stroke-width="11.000000"
	d="
M436.500000,459.000000 
	C429.080505,466.495544 420.386505,469.401123 409.992584,466.526764 
	C406.873810,465.664307 403.663818,465.581696 400.500519,466.501831 
	C390.784271,469.327972 380.825531,467.949677 371.002411,467.819214 
	C365.181641,467.741913 359.311279,467.339966 353.505493,467.615601 
	C347.645325,467.893829 342.492065,466.823639 338.000000,463.000000 
"/>
<path fill="none" opacity="1.000000" stroke="#000000" stroke-linecap="round" stroke-linejoin="round" stroke-width="8.000000"
	d="
M629.000000,469.000000 
	C630.951904,472.500000 630.187622,476.038055 628.982666,479.493958 
	C619.680847,506.171600 610.260864,532.808350 601.053223,559.518372 
	C598.864197,565.868286 596.927734,572.299316 592.413147,577.423462 
	C591.396057,578.577942 590.589478,580.091309 588.524719,580.600342 
	C574.635742,584.024353 560.750061,587.195496 546.525391,589.181946 
	C531.383911,591.296509 516.164734,592.474670 500.979736,593.760803 
	C490.544281,594.644653 479.996033,595.476379 469.501282,595.371277 
	C458.796844,595.264221 448.189087,596.884277 437.500000,596.500000 
"/>
<path fill="none" opacity="1.000000" stroke="#000000" stroke-linecap="round" stroke-linejoin="round" stroke-width="4.000000"
	d="
M251.500000,588.500000 
	C249.976929,592.406799 250.962845,596.450012 252.137238,599.953979 
	C259.513031,621.960754 265.754700,644.306641 272.455414,666.513428 
	C274.161102,672.166382 276.620880,677.601685 277.500000,683.500000 
"/>
<path fill="none" opacity="1.000000" stroke="#000000" stroke-linecap="round" stroke-linejoin="round" stroke-width="4.000000"
	d="
M292.500000,594.000000 
	C290.024780,600.407898 293.242432,606.394104 294.135986,612.480042 
	C295.639465,622.719604 298.018402,632.829712 299.995605,643.000854 
	C302.846100,657.664185 305.666687,672.333313 308.500000,687.000000 
"/>
<path fill="none" opacity="1.000000" stroke="#000000" stroke-linecap="round" stroke-linejoin="round" stroke-width="7.000000"
	d="
M240.000000,328.500000 
	C236.901031,330.338470 233.537628,330.667480 229.998810,330.530945 
	C221.168610,330.190247 212.382874,329.573822 204.010208,326.472443 
	C198.925919,324.589172 195.085144,320.516602 190.023911,318.441681 
	C178.077255,313.544098 166.373642,310.761566 152.914154,312.978882 
	C143.924423,314.459869 140.363312,320.085388 135.500000,325.500000 
"/>
<path fill="none" opacity="1.000000" stroke="#000000" stroke-linecap="round" stroke-linejoin="round" stroke-width="12.000000"
	d="
M190.000000,412.000000 
	C183.591370,416.614716 183.651749,416.751984 185.958771,424.013092 
	C187.529541,428.956909 186.041122,433.394531 182.459946,436.959778 
	C179.832047,439.576050 177.229324,441.918793 173.036545,442.696899 
	C166.388184,443.930664 166.241074,449.362732 168.155945,455.954712 
	C168.986450,458.813751 170.477875,461.604126 171.512253,464.495605 
	C173.368362,469.684174 176.242371,474.423126 175.235535,480.538788 
	C174.723221,483.650574 176.461365,487.234283 177.533676,490.488892 
	C183.965790,510.011292 190.344269,529.553955 197.073502,548.974548 
	C199.929276,557.216309 201.622177,566.049194 207.515396,572.986938 
	C208.960831,574.688599 210.615204,575.941956 212.977921,576.581543 
	C221.066071,578.771057 228.705917,582.268921 236.965225,584.152466 
	C248.730957,586.835571 260.550934,588.912292 272.492371,590.555420 
	C286.611938,592.498352 300.767578,593.734253 314.984039,594.728149 
	C321.502747,595.183960 327.996674,595.231506 334.500000,595.500000 
"/>
<path fill="none" opacity="1.000000" stroke="#000000" stroke-linecap="round" stroke-linejoin="round" stroke-width="5.000000"
	d="
M526.500000,255.000000 
	C531.763123,260.427673 537.856934,265.103638 540.077271,272.978210 
	C542.299622,280.859558 541.242859,288.650116 540.493958,296.499420 
	C539.530701,306.594849 534.876953,315.953857 534.220032,326.014374 
	C533.946594,330.201904 533.027039,335.021484 536.000000,339.000000 
"/>
<path fill="none" opacity="1.000000" stroke="#000000" stroke-linecap="round" stroke-linejoin="round" stroke-width="3.000000"
	d="
M524.000000,252.000000 
	C494.327728,254.520676 481.841858,267.874054 472.057281,296.519562 
	C469.996857,302.551727 468.666626,308.833313 466.999969,315.000000 
"/>
<path fill="none" opacity="1.000000" stroke="#000000" stroke-linecap="round" stroke-linejoin="round" stroke-width="10.000000"
	d="
M248.000000,357.000000 
	C240.773621,352.975281 233.003311,350.432068 225.002090,348.491394 
	C218.227234,346.848145 211.553192,345.108307 204.526855,344.273865 
	C192.117737,342.800171 180.796783,345.263031 169.453018,349.884705 
	C161.200485,353.246918 157.895660,359.849854 155.500000,367.500000 
"/>
<path fill="none" opacity="1.000000" stroke="#000000" stroke-linecap="round" stroke-linejoin="round" stroke-width="20.000000"
	d="
M366.500000,316.000000 
	C353.520660,306.060028 339.859985,307.679504 326.597809,314.685150 
	C319.984558,318.178497 316.333679,324.997559 313.435791,331.973328 
	C311.744598,336.044373 310.809479,340.108795 310.962128,344.501312 
	C311.031403,346.494629 311.401825,348.561584 310.499786,350.499908 
	C308.203064,355.435516 310.407227,359.330383 312.904510,363.556427 
	C317.442261,371.235535 322.419342,378.577637 328.037445,385.469482 
	C332.161255,390.528229 333.429535,390.418427 339.525543,387.554352 
	C345.678436,384.663544 350.233307,380.046631 354.500000,375.000000 
"/>
<path fill="none" opacity="1.000000" stroke="#000000" stroke-linecap="round" stroke-linejoin="round" stroke-width="18.000000"
	d="
M431.500000,314.500000 
	C428.137573,305.094360 422.251617,299.397766 411.501038,299.331177 
	C407.126801,299.304108 403.896698,301.742889 400.000000,302.500000 
"/>
<path fill="none" opacity="1.000000" stroke="#000000" stroke-linecap="round" stroke-linejoin="round" stroke-width="8.000000"
	d="
M589.000000,581.000000 
	C591.825623,585.500000 590.664490,589.896118 589.051758,594.518066 
	C582.262573,613.975342 575.758301,633.532227 568.918640,652.971375 
	C567.633972,656.622437 566.806519,660.176941 567.000000,664.000000 
"/>
<path fill="none" opacity="1.000000" stroke="#000000" stroke-linecap="round" stroke-linejoin="round" stroke-width="6.000000"
	d="
M530.000000,592.000000 
	C532.643799,601.967957 528.288269,611.116272 526.378235,620.475159 
	C523.874512,632.743103 520.537842,644.842896 517.471863,656.992920 
	C516.755737,659.830688 517.153992,662.665894 517.000000,665.500000 
"/>
<path fill="none" opacity="1.000000" stroke="#000000" stroke-linecap="round" stroke-linejoin="round" stroke-width="4.000000"
	d="
M482.500000,595.500000 
	C484.883575,603.718689 482.919098,611.834534 482.042755,620.004578 
	C481.025818,629.484863 480.548187,639.025513 479.424591,648.491028 
	C478.673279,654.820312 477.996368,661.126892 478.000000,667.500000 
"/>
<path fill="none" opacity="1.000000" stroke="#000000" stroke-linecap="round" stroke-linejoin="round" stroke-width="8.000000"
	d="
M634.000000,450.500000 
	C628.417236,449.467865 622.894287,450.582825 617.519531,451.602936 
	C601.934021,454.561035 586.250977,456.669983 570.520020,458.658447 
	C561.355591,459.816864 552.115845,459.977478 542.992798,461.455536 
	C537.685852,462.315277 532.863220,460.999634 529.000000,457.000000 
"/>
<path fill="none" opacity="1.000000" stroke="#000000" stroke-linecap="round" stroke-linejoin="round" stroke-width="6.000000"
	d="
M214.500000,307.000000 
	C207.619400,308.968628 201.991974,304.937653 196.024948,302.925995 
	C182.649994,298.416840 169.448730,296.889679 156.531418,304.056641 
	C152.942093,306.048096 148.702988,307.810059 148.500000,313.000000 
"/>
<path fill="none" opacity="1.000000" stroke="#000000" stroke-linecap="round" stroke-linejoin="round" stroke-width="5.000000"
	d="
M385.000000,598.000000 
	C385.833344,618.666687 386.644836,639.334229 387.529755,659.998718 
	C387.631348,662.371704 388.038391,664.767273 390.000000,666.500000 
"/>
<path fill="none" opacity="1.000000" stroke="#000000" stroke-linecap="round" stroke-linejoin="round" stroke-width="22.000000"
	d="
M403.500000,362.000000 
	C409.079224,370.436584 413.098389,379.516022 415.024933,389.495178 
	C415.624542,392.601166 417.376678,394.964264 420.503479,395.989380 
	C428.649231,398.659943 436.801666,401.325775 445.500000,401.500000 
"/>
<path fill="none" opacity="1.000000" stroke="#000000" stroke-linecap="round" stroke-linejoin="round" stroke-width="5.000000"
	d="
M465.500000,360.000000 
	C469.831329,359.128510 474.535187,358.687256 477.436462,354.950653 
	C482.415009,348.538727 479.726929,339.927917 472.000000,336.500000 
	C467.496216,334.501984 460.173126,337.019287 456.000000,342.000000 
	C453.137939,345.415924 453.307220,349.846436 456.502869,354.498016 
	C458.440002,357.317719 461.701660,358.044006 464.500000,359.500000 
"/>
<path fill="none" opacity="1.000000" stroke="#000000" stroke-linecap="round" stroke-linejoin="round" stroke-width="5.000000"
	d="
M330.500000,276.500000 
	C326.514252,274.746124 322.329102,273.692810 317.998260,273.554840 
	C315.283386,273.468353 313.996277,271.028015 311.527130,270.394287 
	C304.991516,268.716949 298.748260,269.513641 292.499512,271.498444 
	C280.517578,275.304169 271.816437,283.706665 263.605988,292.597870 
	C261.467957,294.913177 259.442810,296.052277 256.500000,296.000000 
"/>
<path fill="none" opacity="1.000000" stroke="#000000" stroke-linecap="round" stroke-linejoin="round" stroke-width="11.000000"
	d="
M589.500000,199.000000 
	C587.626770,196.722946 585.016235,196.787796 582.502747,197.028793 
	C565.434814,198.665344 550.233765,204.218063 538.987915,217.990112 
	C537.021362,220.398438 534.373718,221.893921 531.500000,223.000000 
"/>
<path fill="none" opacity="1.000000" stroke="#000000" stroke-linecap="round" stroke-linejoin="round" stroke-width="22.000000"
	d="
M368.000000,318.000000 
	C363.333344,321.333344 358.473083,324.429749 354.041412,328.050690 
	C345.546295,334.991730 345.040771,339.623169 349.883728,348.066681 
	C353.474152,354.326477 357.447266,360.252014 361.750000,366.000000 
"/>
<path fill="none" opacity="1.000000" stroke="#000000" stroke-linecap="round" stroke-linejoin="round" stroke-width="10.000000"
	d="
M320.000000,308.000000 
	C296.786926,306.962555 279.315063,317.892975 264.454285,334.458984 
	C261.947906,337.253021 259.555725,340.318695 256.000000,342.000000 
"/>
<path fill="none" opacity="1.000000" stroke="#000000" stroke-linecap="round" stroke-linejoin="round" stroke-width="8.000000"
	d="
M191.000000,409.000000 
	C189.668823,411.020020 191.367889,412.004028 192.518936,412.977600 
	C206.156174,424.512421 219.807846,436.030518 233.522446,447.473114 
	C236.125107,449.644592 238.267120,451.937225 238.500000,455.500000 
"/>
<path fill="none" opacity="1.000000" stroke="#000000" stroke-linecap="round" stroke-linejoin="round" stroke-width="6.000000"
	d="
M441.500000,421.500000 
	C435.745026,423.618896 429.498291,423.970612 424.338348,428.307678 
	C420.866150,431.226196 420.050110,434.263458 420.587677,437.987335 
	C421.154510,441.913940 423.889526,444.611267 427.521759,445.940552 
	C432.118835,447.622955 437.161987,447.912628 441.536499,450.436737 
	C442.505890,450.996124 443.254395,451.267517 443.000000,452.500000 
"/>
<path fill="none" opacity="1.000000" stroke="#000000" stroke-linecap="round" stroke-linejoin="round" stroke-width="12.000000"
	d="
M595.500000,198.750000 
	C589.853394,201.549057 588.091003,208.083786 583.067261,211.596176 
	C580.516174,213.379745 578.666687,216.166672 576.500000,218.500000 
"/>
<path fill="none" opacity="1.000000" stroke="#000000" stroke-linecap="round" stroke-linejoin="round" stroke-width="4.000000"
	d="
M689.500000,469.000000 
	C674.745422,463.042450 660.490295,455.914093 645.550781,450.363373 
	C642.877380,449.370087 640.196167,448.738922 637.500000,448.000000 
"/>
<path fill="none" opacity="1.000000" stroke="#000000" stroke-linecap="round" stroke-linejoin="round" stroke-width="15.000000"
	d="
M436.500000,596.500000 
	C403.330261,596.945496 370.155914,598.308044 337.000000,596.000000 
"/>
<path fill="none" opacity="1.000000" stroke="#000000" stroke-linecap="round" stroke-linejoin="round" stroke-width="14.000000"
	d="
M597.500000,671.000000 
	C593.318604,666.454773 588.155090,665.013550 582.002197,664.890015 
	C561.966431,664.487915 542.025085,666.595642 522.000061,666.611633 
	C499.333069,666.629761 476.685730,668.088684 454.000641,668.174072 
	C445.682129,668.205322 437.331909,668.243103 428.998474,668.433105 
	C425.476898,668.513489 422.158386,668.958496 419.000000,670.500000 
"/>
<path fill="none" opacity="1.000000" stroke="#000000" stroke-linecap="round" stroke-linejoin="round" stroke-width="3.000000"
	d="
M162.500000,451.000000 
	C147.919647,457.856567 132.830902,463.590210 118.475754,470.952728 
	C116.821213,471.801331 114.833328,472.000000 113.000000,472.500000 
"/>
<path fill="none" opacity="1.000000" stroke="#000000" stroke-linecap="round" stroke-linejoin="round" stroke-width="7.000000"
	d="
M182.500000,229.500000 
	C186.451370,230.458481 190.810333,229.644867 194.465622,231.565430 
	C201.969040,235.507828 206.900574,242.134811 211.495514,249.003006 
	C216.217529,256.061157 217.508896,264.619293 221.498657,272.000732 
	C221.675766,272.328430 222.015091,272.691223 221.973801,272.996460 
	C220.264282,285.637115 227.834839,296.441650 228.955673,308.504120 
	C229.173050,310.843414 229.614243,313.349640 228.000000,315.500000 
"/>
<path fill="none" opacity="1.000000" stroke="#000000" stroke-linecap="round" stroke-linejoin="round" stroke-width="5.000000"
	d="
M401.500000,258.500000 
	C397.623383,256.363770 394.263092,256.214325 390.922577,259.930389 
	C387.783905,263.421875 383.976929,266.308258 380.504761,269.505188 
	C373.055023,276.364410 369.508545,284.997009 368.983765,294.999146 
	C368.939728,295.838898 368.666626,296.666656 368.499969,297.500000 
"/>
<path fill="none" opacity="1.000000" stroke="#000000" stroke-linecap="round" stroke-linejoin="round" stroke-width="14.000000"
	d="
M410.000000,245.500000 
	C409.641815,248.150085 407.383667,249.686417 405.873627,251.387833 
	C400.816376,257.086029 402.437866,264.864471 399.063416,271.034668 
	C397.012421,274.784851 395.437256,278.900665 392.429474,281.929993 
	C388.668945,285.717468 388.354645,290.367249 388.637482,294.991577 
	C388.851990,298.498688 388.840698,301.999664 389.000000,305.500000 
"/>
<path fill="none" opacity="1.000000" stroke="#000000" stroke-linecap="round" stroke-linejoin="round" stroke-width="5.000000"
	d="
M288.500000,243.500000 
	C282.692139,243.312775 276.977081,244.679916 272.658905,248.195206 
	C268.896179,251.258301 266.051575,255.743530 263.588257,260.050507 
	C257.425171,270.826141 254.145981,282.401001 255.479599,295.002167 
	C255.984039,299.768585 251.871078,301.205322 249.000000,303.500000 
"/>
<path fill="none" opacity="1.000000" stroke="#000000" stroke-linecap="round" stroke-linejoin="round" stroke-width="4.000000"
	d="
M627.500000,487.000000 
	C642.884399,493.171326 658.065308,499.805634 673.000000,507.000000 
"/>
<path fill="none" opacity="1.000000" stroke="#000000" stroke-linecap="round" stroke-linejoin="round" stroke-width="5.000000"
	d="
M324.000000,312.000000 
	C320.593689,309.218262 320.444550,303.947083 315.059113,302.306061 
	C306.710815,299.762238 298.465363,298.875763 290.017059,300.584320 
	C286.348267,301.326294 282.897827,302.311981 279.500000,300.000000 
"/>
<path fill="none" opacity="1.000000" stroke="#000000" stroke-linecap="round" stroke-linejoin="round" stroke-width="8.000000"
	d="
M308.500000,356.500000 
	C301.536743,358.039337 295.093353,357.745026 288.391235,354.205994 
	C281.894897,350.775604 274.297791,351.115356 267.009827,352.074738 
	C266.104431,352.193939 265.333344,353.333344 264.500000,354.000000 
"/>
<path fill="none" opacity="1.000000" stroke="#000000" stroke-linecap="round" stroke-linejoin="round" stroke-width="6.000000"
	d="
M392.000000,687.000000 
	C388.799103,690.742554 384.174927,688.774719 380.464905,689.173645 
	C371.238220,690.165649 361.833313,689.510437 352.500000,689.493408 
	C349.819885,689.488525 347.210266,688.114746 344.447540,689.919739 
	C342.205780,691.384399 339.468628,690.183777 337.005859,689.940613 
	C329.516571,689.201233 322.007477,688.896790 314.506012,688.407654 
	C302.460968,687.622131 290.344574,687.381714 278.479126,684.588684 
	C275.283600,683.836426 271.833344,684.166626 268.500000,684.000000 
"/>
<path fill="none" opacity="1.000000" stroke="#000000" stroke-linecap="round" stroke-linejoin="round" stroke-width="3.000000"
	d="
M626.500000,282.500000 
	C629.287109,289.920227 633.714539,296.543182 638.222595,302.840637 
	C642.752991,309.169159 642.616943,316.148285 643.999878,323.000031 
	C644.167969,323.833069 644.333313,324.666656 644.500000,325.500000 
"/>
<path fill="none" opacity="1.000000" stroke="#000000" stroke-linecap="round" stroke-linejoin="round" stroke-width="3.000000"
	d="
M175.500000,490.000000 
	C161.333344,496.333344 147.166672,502.666687 133.000000,509.000000 
"/>
<path fill="none" opacity="1.000000" stroke="#000000" stroke-linecap="round" stroke-linejoin="round" stroke-width="5.000000"
	d="
M221.000000,282.500000 
	C217.598938,282.703186 214.811279,281.853333 211.908936,279.618256 
	C204.653931,274.031372 196.047928,271.314758 186.988693,270.655426 
	C184.326416,270.461639 181.048553,270.851685 179.000000,273.500000 
"/>
<path fill="none" opacity="1.000000" stroke="#000000" stroke-linecap="round" stroke-linejoin="round" stroke-width="3.000000"
	d="
M621.000000,404.500000 
	C621.889954,407.319580 621.266968,409.723083 620.146851,412.558014 
	C615.546326,424.201965 609.622559,435.136810 603.535828,446.020050 
	C602.155334,448.488586 598.509766,449.760742 599.500000,453.500000 
"/>
<path fill="none" opacity="1.000000" stroke="#000000" stroke-linecap="round" stroke-linejoin="round" stroke-width="10.000000"
	d="
M164.500000,275.500031 
	C166.166672,275.166687 167.860092,274.931183 169.495636,274.484070 
	C179.873932,271.647125 187.585724,277.738464 195.437622,282.600739 
	C202.778305,287.146454 207.901245,294.147369 212.976486,301.017365 
	C214.725388,303.384735 214.056778,306.827789 216.476425,309.025940 
	C219.758759,312.007843 223.414795,314.175415 227.406982,316.184814 
	C232.136078,318.565155 236.166672,322.333344 240.500000,325.500000 
"/>
<path fill="none" opacity="1.000000" stroke="#000000" stroke-linecap="round" stroke-linejoin="round" stroke-width="11.000000"
	d="
M257.500000,229.500000 
	C254.115753,231.134628 251.093384,233.238327 248.480515,235.981430 
	C245.476837,239.134811 242.761780,241.793640 242.098877,246.948410 
	C241.442535,252.051987 239.000839,257.342957 239.206497,262.491760 
	C239.684555,274.460510 239.401535,286.672028 244.493835,298.002777 
	C244.708801,298.481079 244.681290,299.171509 245.022812,299.474274 
	C250.141678,304.012482 248.453888,308.748657 246.145828,314.063324 
	C244.386337,318.114838 244.630005,322.780090 240.690704,326.218475 
	C239.062927,327.639313 241.501709,330.453674 243.486877,332.016663 
	C246.924347,334.723053 250.660828,336.950745 253.680832,340.338806 
	C255.431641,342.302948 256.556061,343.632294 255.470825,345.986542 
	C254.206406,348.729553 255.665115,350.163239 257.436615,352.059235 
	C266.374695,361.625610 278.270142,367.719116 287.015350,377.486267 
	C288.570923,379.223633 291.053955,379.628510 293.016296,379.864685 
	C305.489136,381.365540 310.072754,390.830414 314.411957,400.539368 
	C314.881195,401.589386 315.569366,402.465332 316.000000,403.500000 
"/>
<path fill="none" opacity="1.000000" stroke="#000000" stroke-linecap="round" stroke-linejoin="round" stroke-width="7.000000"
	d="
M525.000000,213.000000 
	C521.399658,208.266800 521.425171,202.175415 519.015442,196.992828 
	C518.573792,196.043152 518.348022,194.994812 517.997498,194.000870 
	C516.071289,188.538498 517.251282,186.042725 522.500000,184.500046 
	C525.572021,183.597122 527.535400,185.219421 528.046997,188.492661 
	C529.032837,194.800095 529.441406,201.131866 529.498962,207.500015 
	C529.506531,208.333267 529.816162,209.355560 529.449219,209.969681 
	C526.875671,214.277176 527.915527,218.255005 530.548218,221.965805 
	C531.754883,223.666641 530.644226,225.094559 530.405823,226.483841 
	C529.292969,232.970245 527.021423,239.156128 527.224854,246.008163 
	C527.322449,249.294083 524.648926,252.744766 522.954407,255.976089 
	C521.518188,258.714783 519.221313,260.969940 518.250000,264.000000 
"/>
<path fill="none" opacity="1.000000" stroke="#000000" stroke-linecap="round" stroke-linejoin="round" stroke-width="6.000000"
	d="
M315.000000,273.000000 
	C311.333344,274.500000 307.567474,275.797791 304.018860,277.538452 
	C293.942810,282.480927 285.130676,288.656250 279.270447,298.868256 
	C276.624664,303.478729 271.929504,307.318695 267.378937,310.316193 
	C262.847534,313.301086 258.013641,315.934357 253.535568,319.051086 
	C250.887024,320.894470 248.136978,321.699066 245.000000,321.500000 
"/>
<path fill="none" opacity="1.000000" stroke="#000000" stroke-linecap="round" stroke-linejoin="round" stroke-width="7.000000"
	d="
M376.000000,305.000000 
	C370.078796,298.747742 359.950043,295.548523 357.953735,286.895325 
	C356.002014,278.435272 350.939087,272.405487 346.883636,265.569031 
	C342.154938,257.597748 340.240875,258.018677 335.880981,266.438354 
	C335.360413,267.443665 335.440308,268.720154 334.500000,269.500000 
"/>
<path fill="none" opacity="1.000000" stroke="#000000" stroke-linecap="round" stroke-linejoin="round" stroke-width="5.000000"
	d="
M198.500000,328.000000 
	C195.964584,330.880035 192.255051,330.656586 188.988495,331.452759 
	C180.047195,333.632080 172.603058,338.203003 166.527328,345.024323 
	C164.943207,346.802856 163.710693,348.885345 164.500000,351.500000 
"/>
<path fill="none" opacity="1.000000" stroke="#000000" stroke-linecap="round" stroke-linejoin="round" stroke-width="6.000000"
	d="
M266.000000,411.500000 
	C258.327057,420.040771 252.547287,429.989929 245.556961,439.043976 
	C243.014236,442.337463 240.862457,445.938507 238.000000,449.000000 
"/>
<path fill="none" opacity="1.000000" stroke="#000000" stroke-linecap="round" stroke-linejoin="round" stroke-width="5.000000"
	d="
M458.000000,366.000000 
	C455.833344,366.666656 453.706604,367.686615 451.492859,367.936951 
	C443.278320,368.865936 438.901703,373.352722 437.926880,381.491241 
	C437.351227,386.297394 441.027100,388.645844 443.000000,392.000000 
"/>
<path fill="none" opacity="1.000000" stroke="#000000" stroke-linecap="round" stroke-linejoin="round" stroke-width="17.000000"
	d="
M693.500000,471.000000 
	C693.104614,476.423767 690.175476,481.004395 688.465271,485.988068 
	C685.932983,493.367554 683.286255,500.714325 680.397705,507.959198 
	C679.830017,509.383026 679.397583,510.553711 679.750000,512.000000 
"/>
<path fill="none" opacity="1.000000" stroke="#000000" stroke-linecap="round" stroke-linejoin="round" stroke-width="3.000000"
	d="
M503.000000,328.000000 
	C496.542084,327.899078 491.406067,325.032959 486.987579,320.512115 
	C481.834503,315.239594 475.576813,314.081543 468.481506,315.400604 
	C466.280548,315.809753 464.624573,316.506622 464.053833,318.515289 
	C462.799438,322.929688 459.502716,325.991486 456.905945,329.428955 
	C452.430969,335.352875 450.777679,335.531036 443.499390,333.001740 
	C442.503815,332.655731 441.500000,332.333344 440.500000,332.000000 
"/>
<path fill="none" opacity="1.000000" stroke="#000000" stroke-linecap="round" stroke-linejoin="round" stroke-width="17.000000"
	d="
M112.500000,470.000000 
	C111.135712,474.878937 113.171204,478.703644 115.269577,483.109741 
	C119.539841,492.076263 122.413879,501.700439 126.052269,510.979492 
	C127.149834,513.778625 125.256111,516.333313 126.000000,519.000000 
"/>
<path fill="none" opacity="1.000000" stroke="#000000" stroke-linecap="round" stroke-linejoin="round" stroke-width="5.000000"
	d="
M231.000015,383.000000 
	C223.166672,393.500000 215.208679,403.911621 207.635010,414.595703 
	C206.504425,416.190613 205.049286,417.408722 204.000000,419.000000 
"/>
<path fill="none" opacity="1.000000" stroke="#000000" stroke-linecap="round" stroke-linejoin="round" stroke-width="6.000000"
	d="
M537.500000,340.500000 
	C537.401733,349.833344 536.380798,359.154236 537.392700,368.511597 
	C537.571777,370.166962 537.856201,371.402985 538.998596,372.501434 
	C543.501953,376.831299 548.000000,381.166656 552.500000,385.500000 
"/>
<path fill="none" opacity="1.000000" stroke="#000000" stroke-linecap="round" stroke-linejoin="round" stroke-width="25.000000"
	d="
M624.500000,359.500000 
	C619.373657,356.200531 613.962036,354.951538 607.989929,356.970245 
	C606.054077,357.624634 603.988586,357.975983 602.002258,356.995422 
	C597.134277,354.592377 592.111694,355.205109 586.990112,355.929962 
	C584.212402,356.323090 581.096497,356.717072 578.541809,355.873413 
	C568.544006,352.571716 560.540771,358.226898 552.034790,361.344849 
	C547.340698,363.065460 543.000000,365.750031 538.500000,368.000031 
"/>
<path fill="none" opacity="1.000000" stroke="#000000" stroke-linecap="round" stroke-linejoin="round" stroke-width="3.000000"
	d="
M504.000000,328.000000 
	C508.003693,327.223053 511.917114,326.798187 513.151672,321.535583 
	C513.923157,318.246735 512.490906,316.552338 510.453644,315.063416 
	C508.233002,313.440460 505.864563,315.014435 504.072632,316.117920 
	C502.126434,317.316437 501.406372,319.405945 502.428436,322.027893 
	C503.969299,325.980652 503.797882,329.900543 502.173950,334.067780 
	C501.140228,336.720551 499.986603,340.448486 502.589478,342.905212 
	C505.171387,345.342102 508.844666,345.203857 511.957947,343.899597 
	C514.635315,342.777985 517.767822,342.883942 520.053101,340.552032 
	C521.961975,338.604218 522.103699,336.629486 520.958191,334.522736 
	C519.713196,332.233185 518.301147,330.196991 514.995605,330.439880 
	C508.446960,330.921112 504.877014,335.351410 505.947479,342.008453 
	C506.017426,342.443604 505.333313,343.000000 505.000000,343.500000 
"/>
<path fill="none" opacity="1.000000" stroke="#000000" stroke-linecap="round" stroke-linejoin="round" stroke-width="8.000000"
	d="
M222.000000,350.000000 
	C220.209579,353.445129 216.759460,354.277893 213.510254,355.526672 
	C208.304031,357.527557 207.818314,359.875885 212.019577,363.477142 
	C228.805481,377.865814 245.638855,392.199524 262.517426,406.479401 
	C267.403900,410.613586 272.455078,414.558044 277.518555,418.476044 
	C280.129181,420.496094 280.201996,423.500183 281.000000,426.250000 
"/>
<path fill="none" opacity="1.000000" stroke="#000000" stroke-linecap="round" stroke-linejoin="round" stroke-width="4.000000"
	d="
M274.500000,461.000000 
	C273.033173,462.639679 271.199860,463.876526 269.009766,463.449921 
	C260.635101,461.818665 251.580048,463.246490 244.001724,457.997528 
	C240.991165,455.912323 238.284958,455.385437 234.899139,457.862122 
	C232.665985,459.495728 229.586197,459.404877 226.487106,459.170563 
	C218.971375,458.602386 211.490112,457.349487 204.057373,456.498749 
	C198.723145,455.888214 192.167740,456.413147 187.500000,452.000000 
"/>
<path fill="none" opacity="1.000000" stroke="#000000" stroke-linecap="round" stroke-linejoin="round" stroke-width="5.000000"
	d="
M531.500000,356.500000 
	C527.311890,360.547546 521.754272,360.796234 516.541443,362.158569 
	C515.263245,362.492615 514.257874,362.206146 513.537537,361.908966 
	C506.558533,359.029388 500.894257,362.109161 498.171906,368.572418 
	C496.487549,372.571259 493.835266,376.667114 495.000000,381.500000 
"/>
<path fill="none" opacity="1.000000" stroke="#000000" stroke-linecap="round" stroke-linejoin="round" stroke-width="12.000000"
	d="
M332.500000,390.500000 
	C330.973846,396.807404 328.381836,402.472626 323.005096,406.506805 
	C320.172089,408.632477 319.445984,412.251221 318.253052,415.105743 
	C315.478729,421.744568 311.861633,427.942902 309.119812,434.549713 
	C308.552704,435.916229 306.851837,437.859589 308.537933,439.460052 
	C311.920471,442.670746 311.830444,446.915985 312.527008,450.995392 
	C313.500946,456.699127 315.552277,458.746216 321.502686,458.882477 
	C324.878510,458.959747 327.985687,459.365662 330.446136,461.560394 
	C332.639130,463.516632 334.768951,462.557861 337.000000,462.250000 
"/>
<path fill="none" opacity="1.000000" stroke="#000000" stroke-linecap="round" stroke-linejoin="round" stroke-width="5.000000"
	d="
M270.500000,249.000000 
	C267.718964,247.225571 265.343658,248.759460 263.008759,250.016251 
	C255.729156,253.934525 250.581818,260.052612 246.623917,267.069885 
	C245.180618,269.628845 243.776184,271.609528 241.000000,272.500000 
"/>
<path fill="none" opacity="1.000000" stroke="#000000" stroke-linecap="round" stroke-linejoin="round" stroke-width="5.000000"
	d="
M229.500000,254.000000 
	C225.400986,250.032486 223.005707,244.685471 218.553268,240.936722 
	C214.447418,237.479782 210.037109,234.786362 205.012421,232.965729 
	C203.102676,232.273743 201.333328,232.327957 199.500000,233.000000 
"/>
<path fill="none" opacity="1.000000" stroke="#000000" stroke-linecap="round" stroke-linejoin="round" stroke-width="14.000000"
	d="
M467.750000,345.500000 
	C468.738098,347.965973 467.543091,350.454834 466.807129,352.428070 
	C465.057098,357.120056 464.960693,361.848755 465.627289,366.481689 
	C466.469482,372.335052 465.258545,377.456238 462.541748,382.522369 
	C460.818420,385.735962 459.500000,389.166656 458.000000,392.500000 
"/>
<path fill="none" opacity="1.000000" stroke="#000000" stroke-linecap="round" stroke-linejoin="round" stroke-width="5.000000"
	d="
M548.000000,390.500031 
	C544.166687,390.333344 540.228760,390.636475 536.541016,389.815796 
	C534.479614,389.357025 532.329285,389.445099 531.088501,390.154724 
	C526.094604,393.010925 520.791321,392.439575 515.500000,392.500000 
"/>
<path fill="none" opacity="1.000000" stroke="#000000" stroke-linecap="round" stroke-linejoin="round" stroke-width="8.000000"
	d="
M312.500000,445.000000 
	C315.666656,443.166656 318.687622,440.986603 322.033722,439.580261 
	C327.211517,437.404144 334.761200,438.454590 338.523010,442.980896 
	C342.646393,447.942322 342.512787,455.493561 338.000000,461.000000 
"/>
<path fill="none" opacity="1.000000" stroke="#000000" stroke-linecap="round" stroke-linejoin="round" stroke-width="5.000000"
	d="
M305.000000,391.500000 
	C298.561188,398.228302 294.882690,406.756897 290.001617,414.501038 
	C288.324860,417.161346 286.666656,419.833313 285.000000,422.500000 
"/>
<path fill="none" opacity="1.000000" stroke="#000000" stroke-linecap="round" stroke-linejoin="round" stroke-width="7.000000"
	d="
M285.000000,382.000000 
	C281.097778,392.398529 273.027710,400.018463 267.000000,409.000000 
"/>
<path fill="none" opacity="1.000000" stroke="#000000" stroke-linecap="round" stroke-linejoin="round" stroke-width="11.000000"
	d="
M456.000000,396.500000 
	C454.166656,397.166656 452.351898,397.891205 450.495758,398.486816 
	C447.493774,399.450073 445.930573,401.337311 444.899323,404.466827 
	C440.843750,416.773895 441.574310,429.093597 444.005859,441.498840 
	C444.464783,443.840240 444.999969,446.166687 445.499969,448.500000 
"/>
<path fill="none" opacity="1.000000" stroke="#000000" stroke-linecap="round" stroke-linejoin="round" stroke-width="4.000000"
	d="
M209.000000,364.000000 
	C209.000000,364.166656 209.027115,364.338593 208.996078,364.499237 
	C207.183258,373.887329 199.052063,378.876221 193.899887,385.926849 
	C191.911499,388.647888 190.347778,391.188995 192.641525,393.879333 
	C193.808258,395.247742 193.517212,396.746521 194.307297,398.111542 
	C196.384216,401.699738 196.323090,405.539093 192.000000,408.000000 
"/>
<path fill="none" opacity="1.000000" stroke="#000000" stroke-linecap="round" stroke-linejoin="round" stroke-width="6.000000"
	d="
M552.500000,333.500000 
	C549.085938,334.644348 549.728455,338.145752 548.588013,340.541901 
	C546.441040,345.053040 544.796265,349.836426 541.934509,353.954498 
	C540.492004,356.030304 538.813354,358.348053 535.494446,357.522369 
	C532.245178,356.714020 531.230408,354.905853 531.374084,351.494690 
	C531.537109,347.624786 527.944641,345.459259 522.999939,345.471832 
	C518.783081,345.482574 517.861511,348.398865 518.117737,351.490234 
	C518.401550,354.914520 516.044556,358.085571 517.500000,361.500000 
"/>
<path fill="none" opacity="1.000000" stroke="#000000" stroke-linecap="round" stroke-linejoin="round" stroke-width="3.000000"
	d="
M653.500000,357.500000 
	C649.435181,362.346436 643.209045,361.668518 637.955261,363.361206 
	C635.037781,364.301178 631.666687,363.833344 628.500000,364.000000 
"/>
<path fill="none" opacity="1.000000" stroke="#000000" stroke-linecap="round" stroke-linejoin="round" stroke-width="12.000000"
	d="
M554.000000,243.500000 
	C552.500000,241.099228 550.568970,243.047989 549.569458,243.621155 
	C542.754089,247.529572 535.594360,248.460709 528.000000,247.000000 
"/>
<path fill="none" opacity="1.000000" stroke="#000000" stroke-linecap="round" stroke-linejoin="round" stroke-width="25.000000"
	d="
M536.500000,370.500000 
	C528.391113,372.811829 521.299255,376.956421 515.010742,382.512177 
	C513.360107,383.970398 511.568665,385.131531 513.403198,388.060638 
	C516.162170,392.465790 514.760254,397.641083 514.973083,402.501190 
	C515.001892,403.159271 514.853333,404.271210 514.471802,404.433838 
	C509.375702,406.606140 505.707764,411.659912 498.973785,410.680145 
	C493.099548,409.825470 487.012238,411.689392 480.994354,410.529297 
	C478.361298,410.021698 475.666656,409.833313 473.000000,409.500000 
"/>
<path fill="none" opacity="1.000000" stroke="#000000" stroke-linecap="round" stroke-linejoin="round" stroke-width="7.000000"
	d="
M284.500000,462.000000 
	C290.537415,466.299622 302.196747,466.299622 307.500000,462.000000 
"/>
<path fill="none" opacity="1.000000" stroke="#000000" stroke-linecap="round" stroke-linejoin="round" stroke-width="6.000000"
	d="
M254.500000,350.500000 
	C250.418533,353.888000 248.168167,358.555206 245.387772,362.928650 
	C241.499405,369.044891 236.833328,374.666656 232.500000,380.500000 
"/>
<path fill="none" opacity="1.000000" stroke="#000000" stroke-linecap="round" stroke-linejoin="round" stroke-width="6.000000"
	d="
M562.000000,423.500000 
	C562.060242,426.036407 562.255615,428.487000 562.878235,431.029816 
	C564.343933,437.016541 562.522461,442.667847 558.985596,444.471771 
	C554.275635,446.874054 549.830322,447.639160 543.500000,442.000000 
"/>
<path fill="none" opacity="1.000000" stroke="#000000" stroke-linecap="round" stroke-linejoin="round" stroke-width="9.000000"
	d="
M280.500000,426.500000 
	C278.166656,427.166656 275.826965,427.811890 273.501373,428.504608 
	C269.038544,429.833893 267.363556,432.980103 266.893860,437.488953 
	C266.482758,441.435425 267.224030,444.247559 270.984161,446.033325 
	C273.216614,447.093567 274.060669,449.297974 275.091248,451.456451 
	C276.150238,453.674500 277.940643,455.543365 279.380127,457.522675 
	C287.155914,456.051544 296.073608,447.297607 296.352814,439.994385 
	C296.524841,435.493988 292.722412,432.360565 289.360718,430.218597 
	C287.054291,428.748993 284.614655,426.642700 281.500000,426.500000 
"/>
<path fill="none" opacity="1.000000" stroke="#000000" stroke-linecap="round" stroke-linejoin="round" stroke-width="3.000000"
	d="
M626.500000,374.000000 
	C632.176697,375.929932 637.906372,377.549438 643.998169,376.489319 
	C647.483765,375.882721 649.986877,376.856323 651.000000,380.500000 
"/>
<path fill="none" opacity="1.000000" stroke="#000000" stroke-linecap="round" stroke-linejoin="round" stroke-width="3.000000"
	d="
M266.500000,683.500000 
	C261.500000,682.500000 256.389740,681.859375 251.539474,680.371338 
	C248.400253,679.408325 246.490662,681.453369 244.000000,682.000000 
"/>
<path fill="none" opacity="1.000000" stroke="#000000" stroke-linecap="round" stroke-linejoin="round" stroke-width="5.000000"
	d="
M332.500000,269.500000 
	C338.945465,272.243164 343.561371,277.336304 348.484192,282.016632 
	C350.795990,284.214539 352.888763,286.679230 356.500000,286.500000 
"/>
<path fill="none" opacity="1.000000" stroke="#000000" stroke-linecap="round" stroke-linejoin="round" stroke-width="10.000000"
	d="
M575.500000,411.500000 
	C574.500000,413.333344 573.589050,415.222473 572.482361,416.988953 
	C569.751099,421.348633 564.040527,422.999268 558.978149,422.126587 
	C553.742981,421.224060 548.332764,421.342041 543.000305,420.995667 
	C540.831909,420.854858 538.666687,420.666656 536.500000,420.500000 
"/>
<path fill="none" opacity="1.000000" stroke="#000000" stroke-linecap="round" stroke-linejoin="round" stroke-width="6.000000"
	d="
M584.500000,337.000000 
	C576.467285,339.837738 571.833130,345.274353 571.500000,354.000000 
"/>
<path fill="none" opacity="1.000000" stroke="#000000" stroke-linecap="round" stroke-linejoin="round" stroke-width="12.000000"
	d="
M451.500000,461.000000 
	C457.104309,465.796173 463.040863,467.888275 470.553467,465.146484 
	C475.470398,463.351990 481.227081,464.497345 486.030151,461.549133 
	C486.844269,461.049408 487.694427,462.052612 488.535126,462.419556 
	C493.570648,464.617493 498.769073,465.743622 503.968170,462.940948 
	C504.701111,462.545837 505.373871,462.376831 505.991302,462.534149 
	C513.359741,464.411255 518.679565,460.893646 523.500000,456.000000 
"/>
<path fill="none" opacity="1.000000" stroke="#000000" stroke-linecap="round" stroke-linejoin="round" stroke-width="3.000000"
	d="
M201.000000,424.500000 
	C199.166672,427.000000 197.161331,429.393860 195.538345,432.023651 
	C192.768646,436.511597 188.884109,437.685333 184.000000,436.500000 
"/>
<path fill="none" opacity="1.000000" stroke="#000000" stroke-linecap="round" stroke-linejoin="round" stroke-width="4.000000"
	d="
M598.000000,395.500000 
	C597.703064,401.829895 598.606995,408.191406 597.500000,414.500000 
"/>
<path fill="none" opacity="1.000000" stroke="#000000" stroke-linecap="round" stroke-linejoin="round" stroke-width="3.000000"
	d="
M644.500000,341.500000 
	C644.116028,349.069061 639.945190,353.634705 633.000000,356.000000 
"/>
<path fill="none" opacity="1.000000" stroke="#000000" stroke-linecap="round" stroke-linejoin="round" stroke-width="6.000000"
	d="
M551.000000,333.500000 
	C548.532288,329.204254 544.676086,330.462219 541.345886,330.882507 
	C539.414734,333.626770 541.261719,337.464905 538.000000,339.500000 
"/>
<path fill="none" opacity="1.000000" stroke="#000000" stroke-linecap="round" stroke-linejoin="round" stroke-width="5.000000"
	d="
M491.000000,376.000000 
	C487.682037,372.151123 483.926544,369.090179 478.500061,368.996094 
	C476.727966,368.965393 475.403107,367.884644 474.000000,367.000000 
"/>
<path fill="none" opacity="1.000000" stroke="#000000" stroke-linecap="round" stroke-linejoin="round" stroke-width="3.000000"
	d="
M318.000000,388.000000 
	C315.808777,394.837219 318.065552,400.972107 321.000000,407.000000 
"/>
<path fill="none" opacity="1.000000" stroke="#000000" stroke-linecap="round" stroke-linejoin="round" stroke-width="3.000000"
	d="
M572.000000,394.000000 
	C572.000000,395.666656 571.898804,397.340576 572.017334,398.998749 
	C572.572144,406.759460 575.822510,412.679260 583.500000,415.500000 
"/>
<path fill="none" opacity="1.000000" stroke="#000000" stroke-linecap="round" stroke-linejoin="round" stroke-width="18.000000"
	d="
M512.000000,385.500000 
	C506.996277,385.654877 502.108551,384.990448 497.528198,382.937103 
	C496.349213,382.408569 495.081604,381.486847 494.037201,382.066986 
	C489.406311,384.639435 483.631592,385.359680 480.077911,389.565826 
	C476.299316,394.038239 471.918976,397.762848 467.500000,401.500000 
"/>
<path fill="none" opacity="1.000000" stroke="#000000" stroke-linecap="round" stroke-linejoin="round" stroke-width="4.000000"
	d="
M192.500000,480.000000 
	C190.317398,485.806793 184.609940,485.745789 179.993164,487.481812 
	C179.208160,487.777008 178.333328,487.833344 177.500000,488.000000 
"/>
<path fill="none" opacity="1.000000" stroke="#000000" stroke-linecap="round" stroke-linejoin="round" stroke-width="4.000000"
	d="
M585.000000,438.500000 
	C588.135864,442.462891 591.378235,446.146118 596.991211,446.607208 
	C598.218079,446.707947 599.333313,448.166687 600.500000,449.000000 
"/>
<path fill="none" opacity="1.000000" stroke="#000000" stroke-linecap="round" stroke-linejoin="round" stroke-width="3.000000"
	d="
M571.500000,425.000000 
	C577.860046,427.058868 581.912170,431.518005 584.500000,437.500000 
"/>
<path fill="none" opacity="1.000000" stroke="#000000" stroke-linecap="round" stroke-linejoin="round" stroke-width="3.000000"
	d="
M631.500000,445.000000 
	C626.760193,442.457001 621.613159,441.024689 616.500000,439.500000 
"/>
<path fill="none" opacity="1.000000" stroke="#000000" stroke-linecap="round" stroke-linejoin="round" stroke-width="3.000000"
	d="
M611.000000,480.000000 
	C615.808228,482.356323 620.848633,484.079437 626.000000,485.500000 
"/>
<path fill="none" opacity="1.000000" stroke="#000000" stroke-linecap="round" stroke-linejoin="round" stroke-width="3.000000"
	d="
M560.000000,407.000000 
	C556.371460,408.905609 554.678406,411.454956 556.979614,415.511566 
	C557.945312,417.213989 557.391663,419.161377 557.500000,421.000000 
"/>
<path fill="none" opacity="1.000000" stroke="#000000" stroke-linecap="round" stroke-linejoin="round" stroke-width="8.000000"
	d="
M551.000000,388.000000 
	C546.829163,390.355347 546.523254,395.194763 546.812317,398.472473 
	C547.560364,406.955109 542.482422,410.542419 536.500000,414.000000 
"/>
<path fill="none" opacity="1.000000" stroke="#000000" stroke-linecap="round" stroke-linejoin="round" stroke-width="7.000000"
	d="
M627.500000,664.000000 
	C621.533875,659.702820 618.466125,659.702820 612.500000,664.000000 
"/>
<path fill="none" opacity="1.000000" stroke="#000000" stroke-linecap="round" stroke-linejoin="round" stroke-width="4.000000"
	d="
M242.000000,242.500000 
	C238.052048,242.358841 236.569351,245.570251 234.496201,247.996750 
	C230.389557,252.803345 227.989548,258.464325 226.584808,264.519684 
	C226.165405,266.327545 225.257462,267.431732 224.000000,268.500000 
"/>
<path fill="none" opacity="1.000000" stroke="#000000" stroke-linecap="round" stroke-linejoin="round" stroke-width="3.000000"
	d="
M617.000000,398.000000 
	C621.456055,401.402008 626.410278,401.192139 631.500000,400.000000 
"/>
<path fill="none" opacity="1.000000" stroke="#000000" stroke-linecap="round" stroke-linejoin="round" stroke-width="5.000000"
	d="
M509.500000,369.500000 
	C509.713989,374.486481 511.496399,379.024841 513.500000,383.500000 
"/>
<path fill="none" opacity="1.000000" stroke="#000000" stroke-linecap="round" stroke-linejoin="round" stroke-width="6.000000"
	d="
M414.500000,667.000000 
	C409.427094,663.460022 405.869141,663.460022 400.500000,667.000000 
"/>
<path fill="none" opacity="1.000000" stroke="#000000" stroke-linecap="round" stroke-linejoin="round" stroke-width="19.000000"
	d="
M456.500000,395.500000 
	C457.400574,398.482452 460.399384,398.681793 462.541992,399.369049 
	C469.107391,401.475067 473.431366,408.720245 472.590698,416.509796 
	C471.847382,423.397400 470.370087,430.029114 468.000000,436.500000 
"/>
<path fill="none" opacity="1.000000" stroke="#000000" stroke-linecap="round" stroke-linejoin="round" stroke-width="5.000000"
	d="
M455.500000,423.500000 
	C454.993530,428.433777 457.768127,432.516907 459.000000,437.000000 
"/>
<path fill="none" opacity="1.000000" stroke="#000000" stroke-linecap="round" stroke-linejoin="round" stroke-width="5.000000"
	d="
M320.000000,424.500000 
	C323.089203,428.501556 323.093597,433.302887 323.500000,438.000000 
"/>
<path fill="none" opacity="1.000000" stroke="#000000" stroke-linecap="round" stroke-linejoin="round" stroke-width="3.000000"
	d="
M569.500000,421.500000 
	C572.095764,425.227722 569.744141,429.200745 569.722839,432.998444 
	C569.713135,434.721344 566.852600,436.705200 564.000000,436.000000 
"/>
<path fill="none" opacity="1.000000" stroke="#000000" stroke-linecap="round" stroke-linejoin="round" stroke-width="3.000000"
	d="
M507.000000,345.500000 
	C510.003571,349.790619 512.049805,354.808807 516.500000,358.000000 
"/>
<path fill="none" opacity="1.000000" stroke="#000000" stroke-linecap="round" stroke-linejoin="round" stroke-width="6.000000"
	d="
M517.500000,362.500000 
	C520.920349,366.177795 522.150574,370.866394 523.500000,375.500000 
"/>
<path fill="none" opacity="1.000000" stroke="#000000" stroke-linecap="round" stroke-linejoin="round" stroke-width="1.000000"
	d="
M380.500000,315.000000 
	C376.500000,315.750000 372.500000,316.500000 368.500000,317.250000 
"/>
<path fill="none" opacity="1.000000" stroke="#000000" stroke-linecap="round" stroke-linejoin="round" stroke-width="3.000000"
	d="
M612.500000,341.500000 
	C608.289673,343.278320 603.765747,344.477783 600.500000,348.000000 
"/>
<path fill="none" opacity="1.000000" stroke="#000000" stroke-linecap="round" stroke-linejoin="round" stroke-width="6.000000"
	d="
M266.000000,336.000000 
	C271.766052,338.403748 277.305634,341.424622 284.036560,339.106171 
	C287.207001,338.014130 290.296539,339.709961 291.914856,342.548553 
	C293.945984,346.111267 297.053253,348.430267 300.000000,351.000000 
"/>
<path fill="none" opacity="1.000000" stroke="#000000" stroke-linecap="round" stroke-linejoin="round" stroke-width="3.000000"
	d="
M515.500000,421.500000 
	C515.999634,425.555450 513.473694,428.602325 512.000000,432.000000 
"/>
<path fill="none" opacity="1.000000" stroke="#000000" stroke-linecap="round" stroke-linejoin="round" stroke-width="5.000000"
	d="
M478.500000,377.500000 
	C478.343628,381.235657 479.959839,384.549255 481.000000,388.000000 
"/>
<path fill="none" opacity="1.000000" stroke="#000000" stroke-linecap="round" stroke-linejoin="round" stroke-width="3.000000"
	d="
M611.500000,446.500000 
	C609.000000,445.344604 606.500000,449.256195 604.000000,446.500000 
"/>
<path fill="none" opacity="1.000000" stroke="#000000" stroke-linecap="round" stroke-linejoin="round" stroke-width="3.000000"
	d="
M307.500000,454.000000 
	C305.140991,453.846436 302.956238,452.472992 300.500000,453.000000 
"/>
<path fill="none" opacity="1.000000" stroke="#000000" stroke-linecap="round" stroke-linejoin="round" stroke-width="3.000000"
	d="
M404.500000,669.500000 
	C402.175049,669.783875 399.766174,668.893066 397.500000,670.000000 
"/>
<path fill="none" opacity="1.000000" stroke="#000000" stroke-linecap="round" stroke-linejoin="round" stroke-width="2.000000"
	d="
M624.500000,679.000000 
	C622.837402,679.207642 620.942627,677.093140 619.500000,679.500000 
"/>
<path fill="none" opacity="1.000000" stroke="#000000" stroke-linecap="round" stroke-linejoin="round" stroke-width="2.000000"
	d="
M538.000000,760.000000 
	C538.333313,761.833313 538.666687,763.666687 539.000000,765.500000 
"/>
<path fill="none" opacity="1.000000" stroke="#000000" stroke-linecap="round" stroke-linejoin="round" stroke-width="3.000000"
	d="
M285.500000,442.000000 
	C283.617645,442.063690 281.636871,441.586060 280.000000,443.000000 
"/>
<path fill="none" opacity="1.000000" stroke="#000000" stroke-linecap="round" stroke-linejoin="round" stroke-width="2.000000"
	d="
M615.500000,443.500000 
	C614.490662,444.826355 610.709717,444.073975 612.500000,447.500000 
"/>
<path fill="none" opacity="1.000000" stroke="#000000" stroke-linecap="round" stroke-linejoin="round" stroke-width="2.000000"
	d="
M463.500000,317.500000 
	C461.653595,317.140503 461.002838,319.172333 459.500000,319.500000 
"/>
<path fill="none" opacity="1.000000" stroke="#000000" stroke-linecap="round" stroke-linejoin="round" stroke-width="2.000000"
	d="
M417.000000,694.000000 
	C415.914581,694.498352 414.644623,694.849060 415.000000,696.500000 
"/>
</svg>